<?xml version="1.0" encoding="utf-8"?>
<!-- Generator: Adobe Illustrator 18.1.1, SVG Export Plug-In . SVG Version: 6.00 Build 0)  -->
<!DOCTYPE svg PUBLIC "-//W3C//DTD SVG 1.1//EN" "http://www.w3.org/Graphics/SVG/1.1/DTD/svg11.dtd">
<svg version="1.1" id="Layer_1" xmlns="http://www.w3.org/2000/svg" xmlns:xlink="http://www.w3.org/1999/xlink" x="0px" y="0px"
	 viewBox="0 0 500 500" enable-background="new 0 0 500 500" xml:space="preserve">
<g>
	<g>
		<path fill="#FFFFFF" d="M227.5,339.1c0,4.2-3.5,7.7-7.8,7.7H23.2c-4.3,0-7.8-3.4-7.8-7.7v-86.6c0-4.3,3.5-7.7,7.8-7.7h196.6
			c4.3,0,7.8,3.4,7.8,7.7V339.1z"/>
	</g>
	<g>
		<path fill="#FFFFFF" d="M480.3,339.1c0,4.2-3.5,7.7-7.8,7.7H276c-4.3,0-7.8-3.4-7.8-7.7v-86.6c0-4.3,3.5-7.7,7.8-7.7h196.6
			c4.3,0,7.8,3.4,7.8,7.7V339.1z"/>
	</g>
	<g>
		<path fill="#FFFFFF" d="M352.5,198.5c0,4.2-3.5,7.7-7.8,7.7H148.2c-4.3,0-7.8-3.4-7.8-7.7v-86.6c0-4.3,3.5-7.7,7.8-7.7h196.6
			c4.3,0,7.8,3.4,7.8,7.7V198.5z"/>
	</g>
</g>
</svg>
