<?xml version="1.0" encoding="utf-8"?>
<!-- Generator: Adobe Illustrator 18.1.1, SVG Export Plug-In . SVG Version: 6.00 Build 0)  -->
<!DOCTYPE svg PUBLIC "-//W3C//DTD SVG 1.1//EN" "http://www.w3.org/Graphics/SVG/1.1/DTD/svg11.dtd">
<svg version="1.1" id="Layer_1" xmlns="http://www.w3.org/2000/svg" xmlns:xlink="http://www.w3.org/1999/xlink" x="0px" y="0px"
	 viewBox="0 0 500 500" enable-background="new 0 0 500 500" xml:space="preserve">
<path fill="#FFFFFF" d="M391.9,471.6H102.3c-8.7,0-15.7-7-15.7-15.7V202c0-8.7,7-15.7,15.7-15.7h289.6c8.7,0,15.7,7,15.7,15.7v254
	C407.6,464.6,400.6,471.6,391.9,471.6z M118,440.3h258.3V217.7H118V440.3z"/>
<path fill="#FFFFFF" d="M302.4,471.6c-8.7,0-15.7-7-15.7-15.7V306.7h-91.1v137.6c0,8.7-7,15.7-15.7,15.7s-15.7-7-15.7-15.7V291
	c0-8.7,7-15.7,15.7-15.7h122.4c8.7,0,15.7,7,15.7,15.7v165C318,464.6,311,471.6,302.4,471.6z"/>
<path fill="#FFFFFF" d="M395,217.7C394.9,217.7,394.9,217.7,395,217.7H99.3c-6.3,0-11.9-3.7-14.4-9.5c-2.5-5.7-1.3-12.4,3-17
	l151-160.1c3-3.1,7.1-4.9,11.4-4.9c0.1,0,0.1,0,0.2,0c4.4,0,8.5,1.9,11.5,5.2L406.1,191c2.8,2.8,4.5,6.7,4.5,11
	C410.6,210.7,403.6,217.7,395,217.7z M135.7,186.3h224L250.1,65L135.7,186.3z"/>
</svg>
