<?xml version="1.0" encoding="utf-8"?>
<!-- Generator: Adobe Illustrator 18.1.1, SVG Export Plug-In . SVG Version: 6.00 Build 0)  -->
<!DOCTYPE svg PUBLIC "-//W3C//DTD SVG 1.1//EN" "http://www.w3.org/Graphics/SVG/1.1/DTD/svg11.dtd">
<svg version="1.1" id="Layer_1" xmlns="http://www.w3.org/2000/svg" xmlns:xlink="http://www.w3.org/1999/xlink" x="0px" y="0px"
	 viewBox="0 0 500 500" enable-background="new 0 0 500 500" xml:space="preserve">
<g>
	<g>
		<path fill="#FFFFFF" d="M134.1,132.5v-23.3c0-13.4-10.9-24.3-24.3-24.3H46.6c-13.4,0-24.3,10.9-24.3,24.3v23.3H134.1z"/>
		<rect x="22.3" y="160.1" fill="#FFFFFF" width="111.7" height="26.8"/>
		<path fill="#FFFFFF" d="M22.3,363.5v20.2c0,13.4,10.9,24.3,24.3,24.3h63.2c13.4,0,24.3-10.9,24.3-24.3v-20.2H22.3z"/>
		<rect x="22.3" y="214.4" fill="#FFFFFF" width="111.7" height="121.5"/>
	</g>
	<g>
		<path fill="#FFFFFF" d="M258.1,132.5v-23.3c0-13.4-10.9-24.3-24.3-24.3h-63.2c-13.4,0-24.3,10.9-24.3,24.3v23.3H258.1z"/>
		<rect x="146.3" y="160.1" fill="#FFFFFF" width="111.7" height="26.8"/>
		<path fill="#FFFFFF" d="M146.3,363.5v20.2c0,13.4,10.9,24.3,24.3,24.3h63.2c13.4,0,24.3-10.9,24.3-24.3v-20.2H146.3z"/>
		<rect x="146.3" y="214.4" fill="#FFFFFF" width="111.7" height="121.5"/>
	</g>
	<g>
		<path fill="#FFFFFF" d="M385,116.8l-9.1-21.4c-5.2-12.3-19.5-18.1-31.8-12.9l-58.2,24.7c-12.3,5.2-18.1,19.5-12.9,31.8l9.1,21.4
			L385,116.8z"/>
		<polygon fill="#FFFFFF" points="292.9,185.8 303.4,210.5 406.3,166.8 395.8,142.1 		"/>
		<path fill="#FFFFFF" d="M372.5,373.1l7.9,18.6c5.2,12.3,19.5,18.1,31.8,12.9l58.2-24.7c12.3-5.2,18.1-19.5,12.9-31.8l-7.9-18.6
			L372.5,373.1z"/>
		
			<rect x="328.6" y="214.1" transform="matrix(0.3909 0.9205 -0.9205 0.3909 485.6426 -193.9703)" fill="#FFFFFF" width="121.5" height="111.7"/>
	</g>
</g>
</svg>
