<?xml version="1.0" encoding="utf-8"?>
<!-- Generator: Adobe Illustrator 18.1.1, SVG Export Plug-In . SVG Version: 6.00 Build 0)  -->
<!DOCTYPE svg PUBLIC "-//W3C//DTD SVG 1.1//EN" "http://www.w3.org/Graphics/SVG/1.1/DTD/svg11.dtd">
<svg version="1.1" id="Layer_1" xmlns="http://www.w3.org/2000/svg" xmlns:xlink="http://www.w3.org/1999/xlink" x="0px" y="0px"
	 viewBox="0 0 500 500" enable-background="new 0 0 500 500" xml:space="preserve">
<g>
	<path fill="#FFFFFF" d="M252,466.2c-121.2,0-219.8-98.6-219.8-219.8S130.8,26.6,252,26.6v20.1c-110.1,0-199.7,89.6-199.7,199.7
		c0,110.1,89.6,199.7,199.7,199.7V466.2z"/>
	<path fill="#FFFFFF" d="M252,151.7c-56.2,0-110.1-12.3-160.2-36.6l8.8-18.1c47.4,22.9,98.4,34.6,151.5,34.6
		c53.1,0,104-11.6,151.5-34.6l8.8,18.1C362.1,139.4,308.1,151.7,252,151.7z"/>
	<path fill="#FFFFFF" d="M403.4,395.9C356,373,305.1,361.3,252,361.3c-53.1,0-104,11.6-151.4,34.5l-8.8-18.1
		c50.2-24.2,104.1-36.5,160.2-36.5c56.1,0,110,12.3,160.2,36.5L403.4,395.9z"/>
	<path fill="#FFFFFF" d="M252,466.2c-32,0-61.6-23.8-83.2-67c-20.5-41-31.8-95.3-31.8-152.8c0-57.6,11.3-111.8,31.8-152.8
		c21.6-43.2,51.1-67,83.2-67v20.1c-51.4,0-94.8,91.4-94.8,199.7c0,108.2,43.4,199.7,94.8,199.7V466.2z"/>
	<path fill="#FFFFFF" d="M252,466.3v-20.1c51.4,0,94.8-91.4,94.8-199.7c0-108.2-43.4-199.7-94.8-199.7V26.7c32,0,61.6,23.8,83.2,67
		c20.5,41,31.8,95.3,31.8,152.8c0,57.6-11.3,111.8-31.8,152.8C313.6,442.5,284,466.3,252,466.3z"/>
	<path fill="#FFFFFF" d="M252,466.2v-20.1c110.1,0,199.7-89.6,199.7-199.7c0-110.1-89.6-199.7-199.7-199.7V26.6
		c121.2,0,219.8,98.6,219.8,219.8S373.2,466.2,252,466.2z"/>
	<rect x="241.9" y="36.7" fill="#FFFFFF" width="20.1" height="419.5"/>
	<rect x="42.3" y="236.3" fill="#FFFFFF" width="419.5" height="20.1"/>
</g>
</svg>
