<?xml version="1.0" encoding="utf-8"?>
<!-- Generator: Adobe Illustrator 18.1.1, SVG Export Plug-In . SVG Version: 6.00 Build 0)  -->
<!DOCTYPE svg PUBLIC "-//W3C//DTD SVG 1.1//EN" "http://www.w3.org/Graphics/SVG/1.1/DTD/svg11.dtd">
<svg version="1.1" id="Layer_1" xmlns="http://www.w3.org/2000/svg" xmlns:xlink="http://www.w3.org/1999/xlink" x="0px" y="0px"
	 viewBox="0 0 500 500" enable-background="new 0 0 500 500" xml:space="preserve">
<g>
	<g>
		<path fill="#FFFFFF" stroke="#FFFFFF" stroke-width="6.1253" stroke-miterlimit="10" d="M322.3,362.7H184.6
			c-5.9,0-10.6-4.8-10.6-10.6v-31.4c-52.1-28.9-84.2-83.2-84.2-143.1c0-90.3,73.4-163.7,163.7-163.7c90.3,0,163.7,73.4,163.7,163.7
			c0,59.9-32.1,114.2-84.2,143.1V352C333,357.9,328.2,362.7,322.3,362.7z M195.2,341.4h116.4v-27.2c0-4,2.3-7.7,5.8-9.5
			c48.3-24.4,78.4-73.1,78.4-127.2C395.9,98.9,332,35,253.5,35C174.9,35,111,98.9,111,177.5c0,54.1,30,102.8,78.4,127.2
			c3.6,1.8,5.8,5.5,5.8,9.5V341.4z"/>
		<path fill="#FFFFFF" stroke="#FFFFFF" stroke-width="6.1253" stroke-miterlimit="10" d="M322.3,399.3H184.6
			c-5.9,0-10.6-4.8-10.6-10.6c0-5.9,4.8-10.6,10.6-10.6h137.7c5.9,0,10.6,4.8,10.6,10.6C333,394.6,328.2,399.3,322.3,399.3z"/>
		<path fill="#FFFFFF" stroke="#FFFFFF" stroke-width="6.1253" stroke-miterlimit="10" d="M322.3,436H184.6
			c-5.9,0-10.6-4.8-10.6-10.6c0-5.9,4.8-10.6,10.6-10.6h137.7c5.9,0,10.6,4.8,10.6,10.6C333,431.2,328.2,436,322.3,436z"/>
		<path fill="#FFFFFF" stroke="#FFFFFF" stroke-width="6.1253" stroke-miterlimit="10" d="M280.1,451.4c0,5.4-2.1,10.9-6.2,15.1
			c-4.2,4.2-9.6,6.2-15.1,6.2h-10.6c-5.4,0-10.9-2.1-15.1-6.2c-4.2-4.2-6.2-9.6-6.2-15.1l0,0H280.1L280.1,451.4z"/>
		<path fill="#FFFFFF" stroke="#FFFFFF" stroke-width="6.1253" stroke-miterlimit="10" d="M253.5,352c-5.9,0-10.6-4.8-10.6-10.6V251
			c0-5.9,4.8-10.6,10.6-10.6c5.9,0,10.6,4.8,10.6,10.6v90.3C264.1,347.2,259.3,352,253.5,352z"/>
		<path fill="#FFFFFF" stroke="#FFFFFF" stroke-width="6.1253" stroke-miterlimit="10" d="M253.5,266.1l-50.6-50.6
			c-4.2-4.2-4.2-10.9,0-15.1c4.2-4.2,10.9-4.2,15.1,0l35.5,35.5l35.5-35.5c4.2-4.2,10.9-4.2,15.1,0c4.2,4.2,4.2,10.9,0,15.1
			L253.5,266.1z"/>
	</g>
</g>
</svg>
