<?xml version="1.0" encoding="utf-8"?>
<!-- Generator: Adobe Illustrator 18.1.1, SVG Export Plug-In . SVG Version: 6.00 Build 0)  -->
<!DOCTYPE svg PUBLIC "-//W3C//DTD SVG 1.1//EN" "http://www.w3.org/Graphics/SVG/1.1/DTD/svg11.dtd">
<svg version="1.1" id="Layer_1" xmlns="http://www.w3.org/2000/svg" xmlns:xlink="http://www.w3.org/1999/xlink" x="0px" y="0px"
	 viewBox="0 0 500 500" enable-background="new 0 0 500 500" xml:space="preserve">
<g>
	<path fill="#FFFFFF" d="M437.1,359.8c-5.7,0-10.3-4.6-10.3-10.3V61.8c0-5.7,4.6-10.3,10.3-10.3s10.3,4.6,10.3,10.3v287.7
		C447.4,355.2,442.8,359.8,437.1,359.8z"/>
	<path fill="#FFFFFF" d="M61.8,359.8c-5.7,0-10.3-4.6-10.3-10.3V61.8c0-5.7,4.6-10.3,10.3-10.3s10.3,4.6,10.3,10.3v287.7
		C72.1,355.2,67.5,359.8,61.8,359.8z"/>
	<path fill="#FFFFFF" d="M464.5,407.6H34.4c-5.7,0-10.3-4.6-10.3-10.3v-47.8c0-5.7,4.6-10.3,10.3-10.3h430.1
		c5.7,0,10.3,4.6,10.3,10.3v47.8C474.8,403,470.2,407.6,464.5,407.6z M44.7,387h409.5v-27.1H44.7V387z"/>
	<path fill="#FFFFFF" d="M464.5,99.5H34.4c-5.7,0-10.3-4.6-10.3-10.3c0-5.7,4.6-10.3,10.3-10.3h430.1c5.7,0,10.3,4.6,10.3,10.3
		C474.8,94.9,470.2,99.5,464.5,99.5z"/>
	<path fill="#FFFFFF" d="M464.5,190.7H34.4c-5.7,0-10.3-4.6-10.3-10.3c0-5.7,4.6-10.3,10.3-10.3h430.1c5.7,0,10.3,4.6,10.3,10.3
		C474.8,186,470.2,190.7,464.5,190.7z"/>
	<path fill="#FFFFFF" d="M322.1,218.1c-5.7,0-10.3-4.6-10.3-10.3v-54.8c0-5.7,4.6-10.3,10.3-10.3c5.7,0,10.3,4.6,10.3,10.3v54.8
		C332.4,213.4,327.8,218.1,322.1,218.1z"/>
	<path fill="#FFFFFF" d="M259.6,218.1c-5.7,0-10.3-4.6-10.3-10.3v-54.8c0-5.7,4.6-10.3,10.3-10.3c5.7,0,10.3,4.6,10.3,10.3v54.8
		C270,213.4,265.3,218.1,259.6,218.1z"/>
	<path fill="#FFFFFF" d="M349,218.1c-5.7,0-10.3-4.6-10.3-10.3v-54.8c0-5.7,4.6-10.3,10.3-10.3s10.3,4.6,10.3,10.3v54.8
		C359.3,213.4,354.7,218.1,349,218.1z"/>
	<path fill="#FFFFFF" d="M375.9,218.1c-5.7,0-10.3-4.6-10.3-10.3v-54.8c0-5.7,4.6-10.3,10.3-10.3c5.7,0,10.3,4.6,10.3,10.3v54.8
		C386.2,213.4,381.6,218.1,375.9,218.1z"/>
	<path fill="#FFFFFF" d="M464.5,281.8H34.4c-5.7,0-10.3-4.6-10.3-10.3c0-5.7,4.6-10.3,10.3-10.3h430.1c5.7,0,10.3,4.6,10.3,10.3
		C474.8,277.2,470.2,281.8,464.5,281.8z"/>
	<path fill="#FFFFFF" d="M110.9,126.9c-5.7,0-10.3-4.6-10.3-10.3V61.8c0-5.7,4.6-10.3,10.3-10.3c5.7,0,10.3,4.6,10.3,10.3v54.8
		C121.2,122.3,116.6,126.9,110.9,126.9z"/>
	<path fill="#FFFFFF" d="M137.8,126.9c-5.7,0-10.3-4.6-10.3-10.3V61.8c0-5.7,4.6-10.3,10.3-10.3c5.7,0,10.3,4.6,10.3,10.3v54.8
		C148.1,122.3,143.5,126.9,137.8,126.9z"/>
	<path fill="#FFFFFF" d="M164.7,126.9c-5.7,0-10.3-4.6-10.3-10.3V61.8c0-5.7,4.6-10.3,10.3-10.3c5.7,0,10.3,4.6,10.3,10.3v54.8
		C175,122.3,170.4,126.9,164.7,126.9z"/>
	<path fill="#FFFFFF" d="M147.5,309.2c-5.7,0-10.3-4.6-10.3-10.3v-54.8c0-5.7,4.6-10.3,10.3-10.3c5.7,0,10.3,4.6,10.3,10.3v54.8
		C157.8,304.6,153.2,309.2,147.5,309.2z"/>
	<path fill="#FFFFFF" d="M174.4,309.2c-5.7,0-10.3-4.6-10.3-10.3v-54.8c0-5.7,4.6-10.3,10.3-10.3c5.7,0,10.3,4.6,10.3,10.3v54.8
		C184.7,304.6,180.1,309.2,174.4,309.2z"/>
	<path fill="#FFFFFF" d="M361.9,309.2c-5.7,0-10.3-4.6-10.3-10.3v-54.8c0-5.7,4.6-10.3,10.3-10.3c5.7,0,10.3,4.6,10.3,10.3v54.8
		C372.2,304.6,367.6,309.2,361.9,309.2z"/>
</g>
</svg>
