<?xml version="1.0" encoding="utf-8"?>
<!-- Generator: Adobe Illustrator 18.1.1, SVG Export Plug-In . SVG Version: 6.00 Build 0)  -->
<!DOCTYPE svg PUBLIC "-//W3C//DTD SVG 1.1//EN" "http://www.w3.org/Graphics/SVG/1.1/DTD/svg11.dtd">
<svg version="1.1" id="Layer_1" xmlns="http://www.w3.org/2000/svg" xmlns:xlink="http://www.w3.org/1999/xlink" x="0px" y="0px"
	 viewBox="0 0 500 500" enable-background="new 0 0 500 500" xml:space="preserve">
<g>
	<g>
		<path fill="#FFFFFF" d="M451.9,441.1h-375c-28.2,0-51.2-23-51.2-51.2V110.2c0-5.7,4.6-10.2,10.2-10.2s10.2,4.6,10.2,10.2
			c0,16.9,13.8,30.7,30.7,30.7h375c5.7,0,10.2,4.6,10.2,10.2v109.1c0,5.7-4.6,10.2-10.2,10.2s-10.2-4.6-10.2-10.2v-98.9H76.9
			c-11.5,0-22.2-3.8-30.7-10.3v238.7c0,16.9,13.8,30.7,30.7,30.7h364.7v-98.9c0-5.7,4.6-10.2,10.2-10.2s10.2,4.6,10.2,10.2v109.1
			C462.1,436.5,457.5,441.1,451.9,441.1z"/>
		<path fill="#FFFFFF" d="M451.9,161.4h-375c-28.2,0-51.2-23-51.2-51.2s23-51.2,51.2-51.2h375c5.7,0,10.2,4.6,10.2,10.2
			c0,5.7-4.6,10.2-10.2,10.2h-375c-16.9,0-30.7,13.8-30.7,30.7s13.8,30.7,30.7,30.7h375c5.7,0,10.2,4.6,10.2,10.2
			C462.1,156.8,457.5,161.4,451.9,161.4z"/>
		<path fill="#FFFFFF" d="M451.9,120.4h-375c-5.7,0-10.2-4.6-10.2-10.2c0-5.7,4.6-10.2,10.2-10.2h375c5.7,0,10.2,4.6,10.2,10.2
			C462.1,115.8,457.5,120.4,451.9,120.4z"/>
		<path fill="#FFFFFF" d="M472.1,332h-97.3c-10.9,0-21.2-4.3-29-12c-7.7-7.7-12-18-12-29c0-10.9,4.3-21.2,12-29c7.7-7.7,18-12,29-12
			h97.3c5.7,0,10.2,4.6,10.2,10.2v61.5C482.4,327.4,477.8,332,472.1,332z M374.8,270.5c-5.5,0-10.6,2.1-14.5,6c-3.9,3.9-6,9-6,14.5
			c0,5.5,2.1,10.6,6,14.5c3.9,3.9,9,6,14.5,6h87.1v-41H374.8z"/>
		<circle fill="#FFFFFF" cx="374.8" cy="291" r="10.2"/>
	</g>
</g>
</svg>
