<?xml version="1.0" encoding="utf-8"?>
<!-- Generator: Adobe Illustrator 18.1.1, SVG Export Plug-In . SVG Version: 6.00 Build 0)  -->
<svg version="1.1" id="Layer_1" xmlns="http://www.w3.org/2000/svg" xmlns:xlink="http://www.w3.org/1999/xlink" x="0px" y="0px"
	 viewBox="0 0 612 792" enable-background="new 0 0 612 792" xml:space="preserve">
<g>
	<path fill="#A5A49B" d="M82,172v448h448V172H82z M505.4,595.4H106.6V196.6h398.7V595.4z"/>
	<rect x="101.5" y="241.6" fill="#A5A49B" width="253.7" height="12.9"/>
	<rect x="180.9" y="404.6" fill="#A5A49B" width="329.7" height="12.9"/>
	<rect x="180.9" y="246.8" fill="#A5A49B" width="12.9" height="170.8"/>
	<rect x="342.2" y="241.6" fill="#A5A49B" width="12.9" height="170.8"/>
	<path fill="#A5A49B" d="M481.7,563.6h33l-64.1-138.5h-4.9h-28.2h-4.9l-64.1,138.5h33l12-25.9h76.1L481.7,563.6z M407.2,508.6
		l24.6-53.1l24.6,53.1H407.2z"/>
	<path fill="#A5A49B" d="M481.7,399.2h33l-64.1-138.5h-4.9h-28.2h-4.9l-64.1,138.5h33l12-25.9h76.1L481.7,399.2z M407.2,344.2
		l24.6-53.1l24.6,53.1H407.2z"/>
	<path fill="#A5A49B" d="M318,399.2h33L287,260.7h-4.9h-28.2h-4.9L185,399.2h33l12-25.9h76L318,399.2z M243.5,344.2l24.6-53.1
		l24.6,53.1H243.5z"/>
	<polygon fill="#A5A49B" points="185,421.9 185,563.6 214.7,563.6 214.7,479.6 253.9,563.6 281.1,563.6 320.2,479.6 320.2,563.6 
		350,563.6 350,421.9 316.4,421.9 267.5,526.7 218.6,421.9 	"/>
	<path fill="#A5A49B" d="M468.8,224.1c0-6.5,4.9-11.4,11.2-11.4c6.2,0,11.1,4.9,11.1,11.4c0,6.6-4.9,11.5-11.1,11.5
		C473.7,235.6,468.8,230.8,468.8,224.1z M480,237.9c7.5,0,13.8-5.8,13.8-13.7c0-7.9-6.4-13.6-13.8-13.6c-7.5,0-13.9,5.8-13.9,13.6
		C466.1,232.1,472.4,237.9,480,237.9z M477.1,225.2h2.8l4.2,6.9h2.7l-4.5-7c2.3-0.3,4.1-1.5,4.1-4.3c0-3.1-1.8-4.5-5.6-4.5h-6v15.8
		h2.4V225.2z M477.1,223.2v-4.9h3.3c1.7,0,3.4,0.4,3.4,2.3c0,2.4-1.8,2.6-3.8,2.6H477.1z"/>
</g>
</svg>
