<?xml version="1.0" encoding="utf-8"?>
<!-- Generator: Adobe Illustrator 18.1.1, SVG Export Plug-In . SVG Version: 6.00 Build 0)  -->
<!DOCTYPE svg PUBLIC "-//W3C//DTD SVG 1.1//EN" "http://www.w3.org/Graphics/SVG/1.1/DTD/svg11.dtd">
<svg version="1.1" id="Layer_1" xmlns="http://www.w3.org/2000/svg" xmlns:xlink="http://www.w3.org/1999/xlink" x="0px" y="0px"
	 viewBox="0 0 500 500" enable-background="new 0 0 500 500" xml:space="preserve">
<g>
	<path fill="#FFFFFF" d="M425,382.2c-0.2-58.6-31.5-81.6-75.9-90.8c-40.2-8.4-76.1-9.9-61.7-63.7c19.4-14.1,23.6-43.3,47.5-52.9
		c1.9-14.7,1.1-23.8,0-38.8c-1.4-5.7-11-3.2-12.3-8.9c-1.4-30,9.9-74.1-10.6-88.3c-3.2-2.2-6.7-2.8-10.3-2.8
		c-3.7,0-7.6,0.6-11.6,0.6c-2.6,0-5.4-0.3-8.1-1.4c-11.6-4.3-12-19.6-24.7-21.1c-3.6,0-7.1,0-10.7,0c-17.8,12-38.9,9.9-57,15
		c-1,0.3-2.1,0.5-3,0.7c-10.5,3.6-17.2,9.9-21.3,18.2c-5.8,11.6-7,27-7,44.6c-0.2,10.3,0.2,21.3,0.1,32.6c-9.1,4.9-12.8,15-13,25.3
		c-0.3,6,0.7,12.3,2.4,17.6c3.1,9.5,11.9,12.2,19.4,21.2c8.8,10.7,14.6,25.1,22.5,33.2c2.7,2.9,5.8,4.9,9.3,5.7
		c0,11.6,0,23.1,0,34.7c-2.6,4-5.9,7.3-9.3,10.2c-32.9,27.7-99.9,15.6-121.3,56.9c-6.5,12.8-4.8,29.3-8.8,49.5c0,0.2,0,0.4,0,0.5
		c0,1.6,0,3.2,0,4.8c0,0.2,0,0.4,0,0.5h0.2c1.9,24.3,40.1,45.2,95.7,56c0.3-0.1,0.6-0.2,1-0.4c24,4.7,51.1,7.4,80,7.7
		c-3-8.6-4.7-17.7-4.7-27.3c0-45.9,37.2-83.1,83.1-83.1c44.6,0,80.9,35.1,83,79.2c11.5-6.7,19.7-14.3,23.9-22.3
		c1.6-3.4,2.8-6.7,3.1-10.2c0,0,0.1,0,0.1,0c0-0.5,0-0.9,0-1.5c0-0.2,0-0.3,0-0.4C425.1,382.8,425,382.5,425,382.2z"/>
	<path fill="#FFFFFF" d="M382.9,418c-1.7-36.3-31.6-65.2-68.3-65.2c-37.8,0-68.5,30.6-68.5,68.5c0,7.9,1.4,15.4,3.9,22.5
		c9.3,26.7,34.7,46,64.6,46c37.8,0,68.5-30.6,68.5-68.4C383.1,420.2,383,419.1,382.9,418z M322.8,459.2c0,4.6-3.7,8.2-8.2,8.2
		c-4.5,0-8.2-3.7-8.2-8.2v-18.7v-11h-29.7c-4.6,0-8.2-3.7-8.2-8.2c0-4.6,3.7-8.2,8.2-8.2h29.7v-29.7c0-4.6,3.7-8.2,8.2-8.2
		c4.5,0,8.2,3.7,8.2,8.2v29.7h29.7c4.5,0,8.2,3.7,8.2,8.2c0,4.5-3.7,8.2-8.2,8.2h-29.7v8.5V459.2z"/>
</g>
</svg>
