<?xml version="1.0" encoding="utf-8"?>
<!-- Generator: Adobe Illustrator 18.1.1, SVG Export Plug-In . SVG Version: 6.00 Build 0)  -->
<!DOCTYPE svg PUBLIC "-//W3C//DTD SVG 1.1//EN" "http://www.w3.org/Graphics/SVG/1.1/DTD/svg11.dtd">
<svg version="1.1" id="Layer_1" xmlns="http://www.w3.org/2000/svg" xmlns:xlink="http://www.w3.org/1999/xlink" x="0px" y="0px"
	 viewBox="0 0 500 500" enable-background="new 0 0 500 500" xml:space="preserve">
<g>
	<path fill="#FFFFFF" d="M460.5,401.2h-417c-6.1,0-11-4.9-11-11c0-6.1,4.9-11,11-11h417c6.1,0,11,4.9,11,11
		C471.6,396.2,466.6,401.2,460.5,401.2z"/>
	<path fill="#FFFFFF" d="M460.6,187L460.6,187h-417c-5.1,0-9.5-3.4-10.7-8.3c-1.2-4.9,1-10,5.5-12.4L246.9,55.2
		c3.2-1.7,7.1-1.7,10.4,0L465.2,166c3.8,1.7,6.4,5.6,6.4,10C471.6,182.1,466.6,187,460.6,187z M87.6,165h328.8L252.1,77.4L87.6,165z
		"/>
	<path fill="#FFFFFF" d="M481.4,445.2H22.7c-6.1,0-11-4.9-11-11c0-6.1,4.9-11,11-11h458.7c6.1,0,11,4.9,11,11
		C492.4,440.3,487.5,445.2,481.4,445.2z"/>
	<g>
		<path fill="#FFFFFF" d="M92,357.1c-6.1,0-11-4.9-11-11V220c0-6.1,4.9-11,11-11c6.1,0,11,4.9,11,11v126.1
			C103,352.2,98,357.1,92,357.1z"/>
		<path fill="#FFFFFF" d="M172,357.1c-6.1,0-11-4.9-11-11V220c0-6.1,4.9-11,11-11c6.1,0,11,4.9,11,11v126.1
			C183,352.2,178.1,357.1,172,357.1z"/>
		<path fill="#FFFFFF" d="M252.1,357.1c-6.1,0-11-4.9-11-11V220c0-6.1,4.9-11,11-11c6.1,0,11,4.9,11,11v126.1
			C263.1,352.2,258.1,357.1,252.1,357.1z"/>
		<path fill="#FFFFFF" d="M332.1,357.1c-6.1,0-11-4.9-11-11V220c0-6.1,4.9-11,11-11c6.1,0,11,4.9,11,11v126.1
			C343.1,352.2,338.2,357.1,332.1,357.1z"/>
		<path fill="#FFFFFF" d="M412.2,357.1c-6.1,0-11-4.9-11-11V220c0-6.1,4.9-11,11-11c6.1,0,11,4.9,11,11v126.1
			C423.2,352.2,418.3,357.1,412.2,357.1z"/>
		<path fill="#FFFFFF" d="M103,231H81c-6.1,0-11-4.9-11-11c0-6.1,4.9-11,11-11h22c6.1,0,11,4.9,11,11C114,226.1,109,231,103,231z"/>
		<path fill="#FFFFFF" d="M183,231h-22c-6.1,0-11-4.9-11-11c0-6.1,4.9-11,11-11h22c6.1,0,11,4.9,11,11C194,226.1,189.1,231,183,231z
			"/>
		<path fill="#FFFFFF" d="M263.1,231h-22c-6.1,0-11-4.9-11-11c0-6.1,4.9-11,11-11h22c6.1,0,11,4.9,11,11
			C274.1,226.1,269.2,231,263.1,231z"/>
		<path fill="#FFFFFF" d="M343.1,231h-22c-6.1,0-11-4.9-11-11c0-6.1,4.9-11,11-11h22c6.1,0,11,4.9,11,11
			C354.1,226.1,349.2,231,343.1,231z"/>
		<path fill="#FFFFFF" d="M423.2,231h-22c-6.1,0-11-4.9-11-11c0-6.1,4.9-11,11-11h22c6.1,0,11,4.9,11,11
			C434.2,226.1,429.3,231,423.2,231z"/>
		<path fill="#FFFFFF" d="M103,357.1H81c-6.1,0-11-4.9-11-11s4.9-11,11-11h22c6.1,0,11,4.9,11,11S109,357.1,103,357.1z"/>
		<path fill="#FFFFFF" d="M183,357.1h-22c-6.1,0-11-4.9-11-11s4.9-11,11-11h22c6.1,0,11,4.9,11,11S189.1,357.1,183,357.1z"/>
		<path fill="#FFFFFF" d="M263.1,357.1h-22c-6.1,0-11-4.9-11-11s4.9-11,11-11h22c6.1,0,11,4.9,11,11S269.2,357.1,263.1,357.1z"/>
		<path fill="#FFFFFF" d="M343.1,357.1h-22c-6.1,0-11-4.9-11-11s4.9-11,11-11h22c6.1,0,11,4.9,11,11S349.2,357.1,343.1,357.1z"/>
		<path fill="#FFFFFF" d="M423.2,357.1h-22c-6.1,0-11-4.9-11-11s4.9-11,11-11h22c6.1,0,11,4.9,11,11S429.3,357.1,423.2,357.1z"/>
	</g>
</g>
</svg>
