<?xml version="1.0" encoding="utf-8"?>
<!-- Generator: Adobe Illustrator 18.1.1, SVG Export Plug-In . SVG Version: 6.00 Build 0)  -->
<!DOCTYPE svg PUBLIC "-//W3C//DTD SVG 1.1//EN" "http://www.w3.org/Graphics/SVG/1.1/DTD/svg11.dtd">
<svg version="1.1" id="Layer_1" xmlns="http://www.w3.org/2000/svg" xmlns:xlink="http://www.w3.org/1999/xlink" x="0px" y="0px"
	 viewBox="0 0 500 500" enable-background="new 0 0 500 500" xml:space="preserve">
<g>
	<g>
		<path fill="#FFFFFF" stroke="#FFFFFF" stroke-width="8.8306" stroke-miterlimit="10" d="M428.2,258H67.6
			c-11.4,0-20.7-9.3-20.7-20.7V119.1c0-11.4,9.3-20.7,20.7-20.7h360.6c11.4,0,20.7,9.3,20.7,20.7v118.2
			C448.9,248.7,439.6,258,428.2,258z M67.6,116.8c-1.2,0-2.3,1.1-2.3,2.3v118.2c0,1.2,1.1,2.3,2.3,2.3h360.6c1.2,0,2.3-1.1,2.3-2.3
			V119.1c0-1.2-1.1-2.3-2.3-2.3H67.6z"/>
		<path fill="#FFFFFF" stroke="#FFFFFF" stroke-width="8.8306" stroke-miterlimit="10" d="M418.6,399.1H77.1
			c-5.5,0-10.7-2.2-14.6-6.1c-3.9-3.9-6.1-9.1-6.1-14.6V248.8h18.4v129.7c0,0.4,0.1,1.1,0.7,1.6c0.6,0.6,1.2,0.7,1.6,0.7h341.4
			c0.4,0,1.1-0.1,1.6-0.7c0.6-0.6,0.7-1.2,0.7-1.6V248.8h18.4v129.7c0,5.5-2.2,10.7-6.1,14.6C429.3,397,424.1,399.1,418.6,399.1z"/>
		<path fill="#FFFFFF" stroke="#FFFFFF" stroke-width="8.8306" stroke-miterlimit="10" d="M314.6,116.8H181.1V84.6
			c0-5.5,2.2-10.7,6.1-14.6c3.9-3.9,9.1-6.1,14.6-6.1h92.1c5.5,0,10.7,2.2,14.6,6.1c3.9,3.9,6.1,9.1,6.1,14.6V116.8z M199.5,98.4
			h96.7V84.6c0-0.4-0.1-1.1-0.7-1.6c-0.6-0.6-1.2-0.7-1.6-0.7h-92.1c-0.4,0-1.1,0.1-1.6,0.7c-0.6,0.6-0.7,1.2-0.7,1.6V98.4z"/>
		<g>
			<g>
				<path fill="#FFFFFF" stroke="#FFFFFF" stroke-width="8.8306" stroke-miterlimit="10" d="M190.3,279.5c0,4.2-3.5,7.7-7.7,7.7h-23
					c-4.2,0-7.7-3.5-7.7-7.7v-61.4c0-4.2,3.5-7.7,7.7-7.7h23c4.2,0,7.7,3.5,7.7,7.7V279.5z"/>
			</g>
			<g>
				<path fill="#FFFFFF" stroke="#FFFFFF" stroke-width="8.8306" stroke-miterlimit="10" d="M343.8,279.5c0,4.2-3.5,7.7-7.7,7.7h-23
					c-4.2,0-7.7-3.5-7.7-7.7v-61.4c0-4.2,3.5-7.7,7.7-7.7h23c4.2,0,7.7,3.5,7.7,7.7V279.5z"/>
			</g>
		</g>
	</g>
</g>
</svg>
