<?xml version="1.0" encoding="utf-8"?>
<!-- Generator: Adobe Illustrator 18.1.1, SVG Export Plug-In . SVG Version: 6.00 Build 0)  -->
<!DOCTYPE svg PUBLIC "-//W3C//DTD SVG 1.1//EN" "http://www.w3.org/Graphics/SVG/1.1/DTD/svg11.dtd">
<svg version="1.1" id="Layer_1" xmlns="http://www.w3.org/2000/svg" xmlns:xlink="http://www.w3.org/1999/xlink" x="0px" y="0px"
	 viewBox="0 0 500 500" enable-background="new 0 0 500 500" xml:space="preserve">
<g>
	<path fill-rule="evenodd" clip-rule="evenodd" fill="#FFFFFF" d="M367,189.6c-0.3,33-13.7,62.8-35.4,84.4
		c-21.9,21.9-52.1,35.4-85.5,35.4s-63.6-13.5-85.5-35.4c-21.7-21.6-35.1-51.5-35.4-84.4H79.6v-27.2h24.9
		c3.3-35.8,19.9-67.8,44.8-90.9c25.4-23.6,59.4-38.1,96.8-38.1c37.4,0,71.4,14.5,96.8,38.1c24.9,23.1,41.5,55.1,44.8,90.9H405v27.2
		H367L367,189.6z M206.6,361.4l-4.4-19.6h-55l-47.2,98.7h134h29.4h133.9L350,341.8h-55l-4.3,19.6l-1.6,7.3l-7.4-0.2
		c-10.6-0.3-21.3-0.4-33-0.4c-11.6,0-22.4,0.1-33,0.4l-7.4,0.2L206.6,361.4L206.6,361.4z M218.3,330.8l4.3,19.5
		c9.4-0.2,18-0.3,26-0.3c8,0,16.5,0.1,26,0.3l4.3-19.5l1.6-7.1h7.2h68h5.7l2.5,5.2l55.9,116.9l6.2,13h-14.4H263.3h-29.4H85.6H71.2
		l6.2-13l55.9-116.9l2.5-5.2h5.7h68h7.2L218.3,330.8L218.3,330.8z M246.1,93.5c10.1,0,19.3,4.1,26,10.7c6.6,6.6,10.7,15.8,10.7,26
		c0,10.1-4.1,19.3-10.7,25.9l0,0c-0.3,0.3-0.5,0.5-0.8,0.8h97.6c-4.2-27.5-17.4-52.1-36.5-70.6c-1.3,6.5-3.4,12.9-6.2,19.2
		c-5.4,11.9-13.5,23.2-24,34.1l-6.5-6.3c9.8-10.1,17.3-20.6,22.2-31.5c3.3-7.3,5.5-14.8,6.5-22.5c-21.3-17.3-48.5-27.7-78.2-27.7
		c-29.9,0-57.4,10.6-78.8,28.2c1,7.5,3.2,14.9,6.4,22.1c5,10.9,12.5,21.4,22.2,31.5l-6.5,6.3c-10.5-10.8-18.5-22.2-24-34.1
		c-2.7-6.1-4.8-12.3-6.1-18.6c-18.8,18.4-31.8,42.8-36,70H221c-0.3-0.3-0.5-0.5-0.8-0.8l0,0h0c-6.6-6.7-10.7-15.8-10.7-25.9
		c0-10.1,4.1-19.3,10.7-25.9l0,0C226.9,97.6,236,93.5,246.1,93.5L246.1,93.5z M259.3,117.1c-3.4-3.4-8-5.4-13.1-5.4
		c-5.1,0-9.8,2.1-13.1,5.4c-3.4,3.4-5.4,8-5.4,13.2c0,5.1,2.1,9.8,5.4,13.1l0,0c3.3,3.3,8,5.4,13.1,5.4c5.1,0,9.8-2.1,13.1-5.4
		c3.4-3.4,5.4-8,5.4-13.1S262.6,120.4,259.3,117.1L259.3,117.1z M348.8,189.6H143.4c0.3,27.9,11.7,53.2,30.1,71.6
		c18.6,18.6,44.3,30.1,72.6,30.1c28.4,0,54.1-11.5,72.6-30.1C337.1,242.9,348.6,217.6,348.8,189.6z"/>
</g>
</svg>
