<?xml version="1.0" encoding="utf-8"?>
<!-- Generator: Adobe Illustrator 18.1.1, SVG Export Plug-In . SVG Version: 6.00 Build 0)  -->
<!DOCTYPE svg PUBLIC "-//W3C//DTD SVG 1.1//EN" "http://www.w3.org/Graphics/SVG/1.1/DTD/svg11.dtd">
<svg version="1.1" id="Layer_1" xmlns="http://www.w3.org/2000/svg" xmlns:xlink="http://www.w3.org/1999/xlink" x="0px" y="0px"
	 viewBox="0 0 500 500" enable-background="new 0 0 500 500" xml:space="preserve">
<g>
	<polygon fill="#FFFFFF" points="201.9,323.3 168.6,339 136.9,416.4 213.2,480.1 236.8,374 223.9,355.3 	"/>
	<polygon fill="#FFFFFF" points="285.8,323.3 319,339 350.8,416.4 274.5,480.1 250.8,374 263.8,355.3 	"/>
	<path fill="#FFFFFF" d="M403.3,181.2L358.3,150l23.5-49.4l-54.5-4.5L323,41.6L273.6,65l-31-45l-31.1,44.9L162,41.4l-4.5,54.5
		l-54.5,4.4l23.3,49.4l-45,31l44.9,31.2l-23.5,49.4l54.5,4.5l4.3,54.5l20.3-9.6l29.1-13.7l31,45l6-8.7l25.1-36.2l49.4,23.5l4.5-54.5
		l54.5-4.3l-23.3-49.4L403.3,181.2z M251.4,261.9c-44.7,5-85.1-27.1-90.1-71.8c-5.1-44.7,27.1-85.1,71.8-90.1
		c44.7-5,85,27.1,90.1,71.8C328.3,216.5,296.1,256.8,251.4,261.9z"/>
</g>
</svg>
